<?xml version="1.0" standalone="no"?>
<svg viewBox="0 0 200 200" xmlns="http://www.w3.org/2000/svg">
  <path fill="#FF0066" d="M9.6,-22.7C12.5,-13,15,-10.5,25.3,-6.2C35.6,-1.9,53.8,4.2,55.1,9.3C56.5,14.3,41,18.2,31.8,26C22.6,33.7,19.7,45.4,11,56.8C2.3,68.2,-12.1,79.4,-23.5,77.3C-34.9,75.3,-43.2,60,-52.3,46.8C-61.4,33.7,-71.1,22.7,-75,9.5C-78.8,-3.6,-76.6,-18.8,-65.9,-25.1C-55.2,-31.3,-35.9,-28.6,-23.5,-34C-11.1,-39.3,-5.6,-52.7,-1.1,-50.9C3.3,-49.2,6.6,-32.3,9.6,-22.7Z" transform="translate(100 100)" />
</svg>
